<svg id="_x32_" width="800px" height="800px" version="1.1" viewBox="0 0 512 512" xmlns="http://www.w3.org/2000/svg">
 <style type="text/css">.st0{fill:#000000;}</style>
 <g fill="#ff9edb">
  <path class="st0" d="m256 47.18c-128.94 0-256 50.448-256 108.38v54.644c0 13.168 10.67 23.838 23.838 23.838h90.602c13.168 0 23.837-10.67 23.837-23.838v-41.116c0-12 8.93-22.132 20.83-23.647 0 0 32.619-6.7 96.893-6.7s96.892 6.7 96.892 6.7c11.901 1.514 20.83 11.647 20.83 23.647v41.117c0 13.168 10.67 23.838 23.837 23.838h90.602c13.168 0 23.838-10.67 23.838-23.838v-54.644c1e-3 -57.928-127.06-108.38-256-108.38z"/>
  <path class="st0" d="m348.5 210.2v-39.913l-0.687-0.142c-0.247-0.049-31.55-6.184-91.812-6.184s-91.564 6.134-91.876 6.198l-0.622 0.127v39.914c0 27.057-22.012 49.062-49.062 49.062h-63.05v141.99c0 35.109 28.458 63.566 63.56 63.566h282.1c35.102 0 63.56-28.458 63.56-63.566v-141.99h-63.05c-27.05 0-49.061-22.005-49.061-49.062zm-17.442 157.9v33.92h-33.913v-33.92h33.913zm0-53.64v33.921h-33.913v-33.921h33.913zm0-53.632v33.913h-33.913v-33.913h33.913zm-58.097 107.27v33.92h-33.913v-33.92h33.913zm0-53.64v33.921h-33.913v-33.921h33.913zm-33.913-19.719v-33.913h33.913v33.913h-33.913zm-24.184 73.359v33.92h-33.913v-33.92h33.913zm0-53.64v33.921h-33.913v-33.921h33.913zm0-53.632v33.913h-33.913v-33.913h33.913z"/>
 </g>
</svg>
